<svg xmlns="http://www.w3.org/2000/svg" viewBox="0 0 512 512">
  <defs>
    <linearGradient id="bg" x1="0%" x2="100%" y1="0%" y2="100%">
      <stop offset="0%" stop-color="#eff7ff"/>
      <stop offset="100%" stop-color="#d7ebff"/>
    </linearGradient>
    <linearGradient id="bottle" x1="0%" x2="100%" y1="0%" y2="100%">
      <stop offset="0%" stop-color="#2da0ff"/>
      <stop offset="100%" stop-color="#1667d9"/>
    </linearGradient>
  </defs>
  <rect width="512" height="512" rx="96" fill="url(#bg)"/>
  <path d="M232 118h70l18 50h-106z" fill="#f7c447"/>
  <path d="M192 166h144c28 0 50 22 50 50v134c0 44-36 80-80 80h-28c-72 0-136-46-136-110V216c0-28 22-50 50-50z" fill="url(#bottle)"/>
  <rect x="214" y="214" width="118" height="110" rx="24" fill="#fdfefe" opacity=".95"/>
  <path d="M226 294c24-34 66-34 90 0" fill="none" stroke="#53b8ff" stroke-linecap="round" stroke-width="10"/>
  <circle cx="250" cy="246" r="10" fill="#53b8ff"/>
  <circle cx="292" cy="246" r="10" fill="#53b8ff"/>
</svg>
