<svg xmlns="http://www.w3.org/2000/svg" viewBox="0 0 512 512">
  <defs>
    <linearGradient id="bg" x1="0%" x2="100%" y1="0%" y2="100%">
      <stop offset="0%" stop-color="#fff6ef"/>
      <stop offset="100%" stop-color="#ffe0cf"/>
    </linearGradient>
    <linearGradient id="jar" x1="0%" x2="100%" y1="0%" y2="100%">
      <stop offset="0%" stop-color="#ff9d47"/>
      <stop offset="100%" stop-color="#d9541f"/>
    </linearGradient>
  </defs>
  <rect width="512" height="512" rx="96" fill="url(#bg)"/>
  <rect x="186" y="112" width="140" height="54" rx="18" fill="#75432c"/>
  <rect x="164" y="154" width="184" height="228" rx="44" fill="url(#jar)"/>
  <rect x="192" y="206" width="128" height="94" rx="24" fill="#fff7ef" opacity=".92"/>
  <text x="256" y="254" text-anchor="middle" font-size="34" font-family="Segoe UI, Arial, sans-serif" fill="#be4b1f" font-weight="700">SPICE</text>
  <path d="M154 360c24 0 30-24 50-24s26 24 46 24 28-24 48-24 28 24 48 24 28-24 48-24v52H154z" fill="#ffe2c9" opacity=".82"/>
  <g fill="#ca2f1f">
    <path d="M194 380c20-10 34-28 38-48 20 14 30 34 26 56-24 0-42-4-64-8z"/>
    <path d="M320 382c-18-12-28-30-30-50-22 12-36 30-36 52 22 2 42 0 66-2z"/>
  </g>
</svg>
